# xmcd
#
# Track frame offsets:
#	180
#	17360
#	28813
#	46034
#	61308
#	77421
#	92244
#	105800
#	123222
#	141569
#
# Disc length: 2114 seconds
#
# Revision: 0
# Processed by: cddbd v1.5.1PL0 Copyright (c) Steve Scherf et al.
# Submitted via: dBpowerAMP V4.0
#
DISCID=7008400a
DTITLE=Matthew Kennedy - Azure Play
DYEAR=1997
DGENRE=Instrumental
TTITLE0=The Marginal Way
TTITLE1=A New Day
TTITLE2=Big Blue Fish
TTITLE3=In Its Own Sweet Rhyme
TTITLE4=Azure Play
TTITLE5=Nocturne
TTITLE6=Song for the Resting Hawk
TTITLE7=Cottonwood Snows
TTITLE8=Winter Sorrow
TTITLE9=Untitled
EXTD=
EXTT0=
EXTT1=
EXTT2=
EXTT3=
EXTT4=
EXTT5=
EXTT6=
EXTT7=
EXTT8=
EXTT9=
PLAYORDER=
